HIERARCHY
ROOT Hips
{
    OFFSET 0.000000 0.000000 0.000000
    CHANNELS 6 Xposition Yposition Zposition Zrotation Xrotation Yrotation
    JOINT Spine
    {
        OFFSET -0.000000 8.339920 0.000000
        CHANNELS 3 Zrotation Xrotation Yrotation
        JOINT Spine1
        {
            OFFSET -0.000000 25.214485 0.000000
            CHANNELS 3 Zrotation Xrotation Yrotation
            JOINT Neck
            {
                OFFSET -0.000000 25.110935 2.282812
                CHANNELS 3 Zrotation Xrotation Yrotation
                JOINT Head
                {
                    OFFSET -0.000000 14.238888 -2.034127
                    CHANNELS 3 Zrotation Xrotation Yrotation
                    End Site
                    {
                        OFFSET -0.000000 25.426584 0.000000
                    }
                }
            }
            JOINT LeftShoulder
            {
                OFFSET 4.025024 23.158985 -0.185822
                CHANNELS 3 Zrotation Xrotation Yrotation
                JOINT LeftArm
                {
                    OFFSET 11.674057 0.000000 0.000000
                    CHANNELS 3 Zrotation Xrotation Yrotation
                    JOINT LeftForeArm
                    {
                        OFFSET 31.688633 0.000000 0.000000
                        CHANNELS 3 Zrotation Xrotation Yrotation
                        JOINT LeftHand
                        {
                            OFFSET 29.704493 0.000000 0.000000
                            CHANNELS 3 Zrotation Xrotation Yrotation
                            End Site
                            {
                                OFFSET 15.255952 0.000000 0.000000
                            }
                        }
                    }
                }
            }
            JOINT RightShoulder
            {
                OFFSET -4.099539 23.158985 -0.185822
                CHANNELS 3 Zrotation Xrotation Yrotation
                JOINT RightArm
                {
                    OFFSET -11.674057 0.000000 0.000000
                    CHANNELS 3 Zrotation Xrotation Yrotation
                    JOINT RightForeArm
                    {
                        OFFSET -31.688633 0.000000 0.000000
                        CHANNELS 3 Zrotation Xrotation Yrotation
                        JOINT RightHand
                        {
                            OFFSET -29.704493 0.000000 0.000000
                            CHANNELS 3 Zrotation Xrotation Yrotation
                            End Site
                            {
                                OFFSET -15.255952 0.000000 0.000000
                            }
                        }
                    }
                }
            }
        }
    }
    JOINT LeftUpLeg
    {
        OFFSET 10.170634 0.000000 0.000000
        CHANNELS 3 Zrotation Xrotation Yrotation
        JOINT LeftLeg
        {
            OFFSET -0.000000 -41.352962 0.000000
            CHANNELS 3 Zrotation Xrotation Yrotation
            JOINT LeftFoot
            {
                OFFSET -0.000000 -47.535004 0.000000
                CHANNELS 3 Zrotation Xrotation Yrotation
                JOINT LeftToeBase
                {
                    OFFSET -0.000000 -6.610912 15.255952
                    CHANNELS 3 Zrotation Xrotation Yrotation
                    End Site
                    {
                        OFFSET -0.000000 0.000000 4.068254
                    }
                }
            }
        }
    }
    JOINT RightUpLeg
    {
        OFFSET -10.170634 0.000000 0.000000
        CHANNELS 3 Zrotation Xrotation Yrotation
        JOINT RightLeg
        {
            OFFSET -0.000000 -41.352962 0.000000
            CHANNELS 3 Zrotation Xrotation Yrotation
            JOINT RightFoot
            {
                OFFSET -0.000000 -47.535004 0.000000
                CHANNELS 3 Zrotation Xrotation Yrotation
                JOINT RightToeBase
                {
                    OFFSET -0.000000 -6.610912 15.255952
                    CHANNELS 3 Zrotation Xrotation Yrotation
                    End Site
                    {
                        OFFSET -0.000000 0.000000 4.068254
                    }
                }
            }
        }
    }
}
MOTION
Frames:    13
Frame Time:    0.008333
61.869385    73.988731    35.991795    -12.033000    -4.403894    85.879814    1.705036    -6.544223    -1.429577    -4.671783    24.817160    -0.498640    -4.430439    17.558996    -3.974510    9.151173    -15.849903    -1.655642    8.619209    3.071245    -16.445976    -43.716888    36.692787    -24.461449    15.545195    -9.676787    -20.612915    -31.743622    -4.762033    -7.412971    -8.355121    -3.671219    10.591990    37.067436    56.724827    38.339191    -11.629923    -3.452047    20.483677    -0.125569    -1.358849    12.260765    15.681593    -65.233086    11.700186    -8.875480    61.677631    12.119125    6.111835    -21.432240    4.664745    0.000000    0.000000    0.000000    17.548290    -63.611912    12.427907    -2.183210    60.074856    -3.716610    -5.645445    -17.312201    -13.105392    0.000000    0.000000    0.000000    
62.138474    73.956215    35.849972    -12.492656    -4.023271    85.506065    1.586905    -6.688754    -1.240438    -5.378388    24.173183    -0.180661    -3.952447    17.426933    -3.742254    9.331260    -15.816492    -1.355459    8.801031    2.768735    -16.643780    -43.311752    35.216911    -24.560497    15.690777    -9.776210    -21.683643    -31.711191    -4.529126    -7.963267    -8.504165    -3.724006    10.544265    37.196232    55.949608    38.514088    -11.885202    -4.115103    20.957239    -2.332683    -2.175903    12.913854    15.528776    -65.737915    11.732827    -8.909601    61.925854    12.144976    6.002260    -21.441643    5.085128    0.000000    0.000000    0.000000    18.081684    -64.179321    13.413490    -2.521270    60.433151    -3.648734    -5.458238    -17.551153    -12.654567    0.000000    0.000000    0.000000    
62.389267    74.007706    35.726360    -12.936124    -3.802805    85.126701    1.712658    -6.867452    -1.028953    -6.244339    23.526857    0.169786    -3.394439    17.540014    -3.511914    9.420315    -16.074345    -1.067882    9.230799    2.597399    -17.028021    -43.087219    33.098980    -24.702133    15.622538    -9.511344    -22.510044    -31.758465    -4.104056    -8.136732    -8.605441    -3.823961    10.578317    36.980408    55.751099    38.783089    -12.288943    -5.537226    21.371590    -3.938615    -3.658965    12.845603    15.542068    -66.129013    11.661919    -9.171581    61.995930    12.476389    5.972816    -21.339998    5.462556    0.000000    0.000000    0.000000    19.356043    -64.951530    14.926066    -3.233887    61.089108    -3.726811    -4.546342    -16.885769    -11.599045    0.000000    0.000000    0.000000    
62.715031    74.129143    35.579472    -13.150951    -3.679582    84.831482    2.029526    -6.973461    -0.834986    -7.247512    22.946150    0.514192    -2.708235    17.734518    -3.357914    9.219087    -16.203968    -0.950479    9.586320    2.471162    -17.497709    -42.540039    31.015686    -24.925514    15.644588    -8.767640    -23.019505    -31.821274    -3.251552    -8.202378    -8.518080    -3.763905    10.618826    36.655102    55.223133    38.949928    -12.546440    -6.952834    21.706741    -4.854620    -5.086633    12.656043    15.166343    -66.238098    11.487292    -8.689387    62.050438    11.952332    6.036087    -21.242258    6.031733    0.000000    0.000000    0.000000    19.995089    -65.323006    15.906027    -3.089557    61.441093    -4.030931    -4.317741    -16.320700    -11.464190    0.000000    0.000000    0.000000    
63.153709    74.363167    35.468018    -12.818549    -3.714276    84.688316    2.354810    -6.649493    -0.790606    -8.068851    22.407866    0.673337    -2.291402    18.062418    -3.179258    9.146697    -16.362616    -0.773916    9.830340    2.209879    -17.759035    -41.824524    29.347910    -25.304882    15.673519    -7.717022    -23.009628    -31.415848    -2.227208    -8.169595    -8.562325    -3.869785    10.735014    36.297569    54.959003    39.137161    -12.926329    -8.127483    21.826696    -5.009478    -6.193241    12.606291    14.352164    -65.643158    10.956421    -7.742123    62.035713    10.815251    6.212698    -21.195322    6.696768    0.000000    0.000000    0.000000    19.953342    -64.898331    15.633030    -3.590509    61.532215    -3.448149    -4.548159    -15.899542    -11.566748    0.000000    0.000000    0.000000    
63.691689    74.667648    35.357632    -12.233255    -3.815582    84.569260    2.611310    -6.237080    -0.764536    -8.618807    21.969297    0.769099    -2.054177    18.024017    -2.924884    8.928293    -15.772875    -0.610210    9.885397    2.166652    -17.971792    -40.511150    28.285059    -26.036640    15.698312    -7.074450    -22.674135    -30.200642    -1.727320    -8.127749    -8.656420    -4.141488    10.821566    36.030910    54.615345    39.068153    -13.034035    -8.731458    22.033016    -6.412643    -6.867886    11.875745    13.435580    -64.555054    10.184420    -6.963992    61.762611    10.146845    6.358613    -21.413675    6.994355    0.000000    0.000000    0.000000    19.288105    -63.910759    15.007418    -3.339322    61.324486    -3.524954    -4.286757    -16.131468    -11.748819    0.000000    0.000000    0.000000    
64.223328    75.029060    35.267685    -11.685475    -3.942987    84.495728    2.795349    -5.954331    -0.747996    -8.979366    21.653391    0.827200    -2.162792    18.022499    -2.871140    9.295056    -15.252526    -0.494973    10.045168    1.702222    -18.102501    -39.368042    27.955374    -26.715607    16.063255    -6.445048    -21.913738    -30.207008    -1.070898    -8.345834    -8.607132    -3.856853    10.680212    34.868774    53.672729    39.730564    -13.316882    -8.231522    22.117371    -7.251354    -6.347603    11.254770    12.797732    -63.331917    9.565536    -6.603969    61.266132    9.708371    6.754826    -21.735920    7.393966    0.000000    0.000000    0.000000    18.465807    -62.726444    14.105254    -3.210514    60.833542    -3.304566    -5.162719    -16.295004    -12.115524    0.000000    0.000000    0.000000    
64.832756    75.430359    35.177341    -10.909449    -4.053694    84.542358    2.848892    -5.542217    -0.811502    -9.087354    21.334091    0.765618    -2.036842    18.661638    -2.700982    8.985476    -15.958598    -0.359343    10.042522    1.628472    -18.053007    -37.778427    27.661873    -27.900253    16.011858    -6.235479    -20.926283    -29.431074    -1.084306    -8.309747    -8.816380    -3.856781    10.482198    34.118889    52.887974    39.991493    -13.647223    -7.419200    22.305155    -7.345687    -5.428236    10.872304    11.970404    -61.821445    8.699335    -6.474259    60.726944    9.563563    6.559279    -21.998276    7.524681    0.000000    0.000000    0.000000    17.207569    -61.157772    12.771501    -3.054975    60.176182    -3.127420    -5.465881    -17.092312    -12.355786    0.000000    0.000000    0.000000    
65.471855    75.898972    35.083416    -10.105199    -4.061921    84.497719    2.667717    -5.278029    -0.797452    -8.975371    21.379272    0.777132    -2.280364    18.390162    -2.854177    9.297572    -15.606838    -0.458928    10.430602    0.652696    -17.773577    -37.097733    27.936132    -28.808510    15.864655    -6.268889    -20.067215    -28.841040    -1.393545    -8.006119    -9.081947    -4.221605    10.232332    33.997311    52.091751    39.657238    -14.272154    -6.164865    22.281870    -6.496220    -3.984965    11.191625    11.185113    -60.101364    8.131718    -6.003900    60.010864    9.043177    6.469338    -22.316406    7.743818    0.000000    0.000000    0.000000    15.987329    -59.317905    11.589387    -2.933717    59.164509    -3.177600    -5.555956    -18.117229    -12.368876    0.000000    0.000000    0.000000    
66.107315    76.394608    35.000839    -9.290930    -4.123049    84.555199    2.514797    -4.898142    -0.838082    -8.797338    21.114544    0.696959    -2.456150    18.678711    -2.879400    9.412444    -15.863525    -0.443476    10.483099    0.687187    -17.734823    -35.269573    28.339777    -29.977009    15.912850    -7.210563    -19.288858    -29.040237    -2.493179    -7.762089    -9.262984    -4.472329    10.114825    33.746914    51.423477    39.211250    -14.665817    -5.058418    22.335865    -5.802234    -2.724494    11.257110    10.567159    -58.227280    7.532658    -5.984210    59.040180    8.753737    6.558446    -22.765463    8.081689    0.000000    0.000000    0.000000    14.759174    -57.598404    10.680095    -2.122450    58.353474    -3.848813    -5.121353    -19.045067    -12.427025    0.000000    0.000000    0.000000    
66.634743    76.929604    34.915440    -8.768439    -4.181683    84.638504    2.316592    -4.641510    -0.932732    -8.421981    20.656221    0.510835    -2.754390    18.525032    -2.748469    9.446883    -15.461643    -0.332344    10.581470    -0.103212    -17.642752    -34.740929    28.686373    -30.264246    15.762902    -7.811251    -18.809261    -29.578428    -3.214074    -7.533476    -9.306799    -4.429326    10.105182    33.055538    50.451248    39.114819    -14.630329    -4.457118    22.096951    -5.579544    -2.148534    11.457969    10.125751    -56.727261    7.155652    -5.897138    58.066891    8.338636    6.345891    -22.956581    8.280330    0.000000    0.000000    0.000000    13.662431    -56.100460    9.701605    -1.579193    57.294998    -4.340319    -5.383129    -19.507366    -12.380789    0.000000    0.000000    0.000000    
67.125839    77.510727    34.798019    -8.370644    -4.078944    84.644417    2.003924    -4.652685    -0.934628    -8.157501    20.630829    0.471145    -2.917395    18.173891    -2.855024    9.599545    -15.503921    -0.391616    11.073370    -0.507533    -17.412781    -34.118587    28.347307    -30.984074    15.616795    -8.126092    -18.654005    -30.634502    -3.442719    -7.754549    -9.623485    -5.092774    9.921565    33.080093    50.374004    38.264702    -14.938159    -4.267482    22.343655    -5.498305    -1.820309    10.730645    9.618317    -55.197243    6.534406    -6.312428    56.807980    8.626511    6.394007    -23.042028    8.394663    0.000000    0.000000    0.000000    12.611793    -54.811768    8.793976    -1.256421    56.319561    -4.533120    -5.244535    -19.893866    -12.302082    0.000000    0.000000    0.000000    
67.609093    78.126259    34.721886    -8.113030    -4.153456    84.678902    1.965936    -4.682015    -1.074757    -8.149362    20.273603    0.304216    -3.119524    18.042278    -2.710145    9.867151    -15.324190    -0.181779    11.453218    -0.898714    -17.273428    -33.774952    28.057766    -31.075356    15.646534    -8.508517    -18.500130    -31.440208    -3.719133    -7.992917    -9.596679    -5.022083    10.251070    32.892357    49.375275    37.610680    -14.860180    -4.240513    22.033796    -4.929563    -1.821267    11.279307    9.357243    -53.852818    6.379122    -6.028893    55.719910    7.978292    6.037636    -23.198584    8.408211    0.000000    0.000000    0.000000    11.767879    -53.561825    8.093564    -0.553594    55.258350    -4.918220    -4.886480    -20.305387    -12.413766    0.000000    0.000000    0.000000    
